PathFileType	4	(X/Y/Z)	path1_05_0-945.trc
DataRate	CameraRate	NumFrames	NumMarkers	Units	OrigDataRate	OrigDataStartFrame	OrigNumFrames
30	30	8	22	m	30	472	945
Frame#	Time	Hip			RHip			RKnee			RAnkle			RBigToe			RSmallToe			RHeel			LHip			LKnee			LAnkle			LBigToe			LSmallToe			LHeel			Neck			Head			Nose			RShoulder			RElbow			RWrist			LShoulder			LElbow			LWrist		
		X1	Y1	Z1	X2	Y2	Z2	X3	Y3	Z3	X4	Y4	Z4	X5	Y5	Z5	X6	Y6	Z6	X7	Y7	Z7	X8	Y8	Z8	X9	Y9	Z9	X10	Y10	Z10	X11	Y11	Z11	X12	Y12	Z12	X13	Y13	Z13	X14	Y14	Z14	X15	Y15	Z15	X16	Y16	Z16	X17	Y17	Z17	X18	Y18	Z18	X19	Y19	Z19	X20	Y20	Z20	X21	Y21	Z21	X22	Y22	Z22
473	15.766666666666667	-1.6760531456493444	0.8171506036732464	0.25457053856787815	-1.67812846977154	0.7988796675313437	0.33955830922674507	-1.6989440354480096	0.4726886388289222	0.30351745277691966	-1.7248043270158433	0.1224827871035153	0.3096603898287814	-1.566942162789368	0.034513563719913494	0.33492108201901893	-1.5956178188191676	0.03332074182708777	0.392085792271609	-1.762399497363315	0.06236200950873305	0.30957084146790226	-1.6622277711048274	0.7942879895803225	0.18735309732630226	-1.6641174177831772	0.44560660525656737	0.1806681548240303	-1.6949206458400705	0.10710947720720954	0.17748586514182896	-1.547875491095192	0.014134292826138881	0.13804390266572655	-1.555527792340318	0.026983644680954606	0.10079632861949989	-1.7780777023653727	0.0187818458625453	0.18275001205363703	-1.6673252237077159	1.45073771018343	0.21799384910773245	-1.5979322791102701	1.7234852324657457	0.2676831254297431	-1.5316238204923522	1.594130584499132	0.2659699837039051	-1.7274142168346345	1.3547182059195608	0.36230313953940196	-1.7086299658458448	1.0550992681920743	0.3944057724818604	-1.611477696015454	0.8577050141107982	0.46362475952075466	-1.6951098548104908	1.336070753852133	0.12413146276200149	-1.6892181414261422	1.0420289838830812	0.10933741821053089	-1.5969731514054508	0.8599432797535763	0.06093760974632384
474	15.8	-1.6762781904988446	0.8171242922042501	0.2546533971131761	-1.6780872303078465	0.7995292028328592	0.3396854142725885	-1.6990078368862571	0.4728565810649847	0.3037437676780354	-1.7247975017971702	0.12256038343680387	0.3096854592948842	-1.5671603646294976	0.03466457468299735	0.3350528233890255	-1.5958898393311205	0.03335112728041766	0.3918766197754607	-1.762445297030854	0.06256386882948009	0.3094682299448718	-1.6619550884367607	0.7948937416798061	0.18740817435512325	-1.6622272165671041	0.4449087800727348	0.1783984269593074	-1.6946721242761569	0.10750870691241023	0.17755977034522916	-1.544881172103025	0.015300245167225657	0.14135199726997313	-1.555284523109285	0.027388118490204602	0.10062967871679719	-1.7779819862974588	0.01876721829166429	0.1827372711889171	-1.6672255812746266	1.450402259252208	0.21774709324771607	-1.5965394704254472	1.723755105180855	0.2669125933193795	-1.5312535561379295	1.5932874823403838	0.2645539929120061	-1.7271843443557304	1.3547652043339717	0.3627193515715269	-1.7083375311037285	1.0549722798645762	0.3948271962268535	-1.6115654862859743	0.8579334736331121	0.46351025287832476	-1.6947211261014183	1.3351720739060804	0.12868736963839944	-1.6889910812268878	1.042144661571472	0.10930670078275186	-1.5968160957783037	0.8604166170203733	0.06063153925490618
475	15.833333333333334	-1.6762500047761397	0.8172005971166616	0.25476929709081203	-1.6780584601497341	0.7999811665624099	0.3397154095612421	-1.6991296871875354	0.4729526131758331	0.30372702770160925	-1.7247341638677094	0.12291270237231003	0.3097359152699968	-1.567383319793553	0.03462450124488084	0.33512890498924086	-1.5961973155410163	0.033398333601094586	0.3918332092984792	-1.7623728060947512	0.06305104830921614	0.30940600252729805	-1.6617012713574169	0.7953170371544125	0.18735858246183668	-1.6613752389156302	0.44473300259642606	0.17741991386904013	-1.6943952485914664	0.10810669053610134	0.17759153377850456	-1.54164797324031	0.016388260478298614	0.14481127107448366	-1.5547693368087496	0.027665921300034743	0.10050526385124464	-1.7765795428744802	0.01957260724925506	0.18257613531139869	-1.6670832161936229	1.4501188058174859	0.21753970442092424	-1.5954600043182767	1.7237359363625415	0.26576041017170493	-1.5308153462506437	1.592457125556211	0.26309468737927344	-1.7269984757272516	1.3546417071918344	0.3631960358683145	-1.70812773139674	1.0548854512024735	0.39527670758563277	-1.611704532923732	0.8581538076403031	0.4634635598924844	-1.6942683513738395	1.3347103076213693	0.13058000052896795	-1.6887988730973293	1.0423045056637008	0.10917526860837451	-1.596685486894115	0.8608420700493642	0.06022703761577384
476	15.866666666666667	-1.6760114502557513	0.8173759902081614	0.2548850369476833	-1.6780866413131772	0.8002542379079162	0.3396575777551433	-1.6992949507554398	0.47303589158669895	0.30345414848292657	-1.7246866619046188	0.12342394747201227	0.3097202397380169	-1.5675582477716743	0.03449193568995304	0.3351936348681483	-1.5965001123515572	0.0334503625388337	0.39190361088380177	-1.762306469940769	0.06356814367692855	0.3092541438453704	-1.6614629727929722	0.79560573679969	0.18727432030958813	-1.6616626019855176	0.44525436816234587	0.17801264980320103	-1.6940456804812287	0.10882359759903505	0.17757625822745376	-1.5394755360496932	0.017060834149791187	0.14707742248460487	-1.5541067707906202	0.027762544292389175	0.10040149322871207	-1.7738103312393199	0.02115891475192928	0.18232350655713875	-1.6669153561927876	1.4498681780708704	0.21730541790129018	-1.594687107749983	1.7235111370104355	0.26471875155849234	-1.5303992659397072	1.5917162757908327	0.26195395083757333	-1.7268319950739246	1.3543330826455175	0.36368878848541814	-1.7080067570548203	1.0547822739564496	0.39561256462696653	-1.611778080068625	0.8582640822752208	0.46344628421347867	-1.6937704847109378	1.3349842726067844	0.1284499612241977	-1.688624885360602	1.042493435721084	0.1089994142884243	-1.5965351602416642	0.8611962281289014	0.05975089270623653
477	15.9	-1.675613306428498	0.8176265636358454	0.25497036939076173	-1.6782008874739587	0.8002660082632101	0.33949508395597316	-1.6995035799510583	0.4730558358307614	0.30297655653188493	-1.7247035228357963	0.12392625433754044	0.30965373372358873	-1.5676790265306528	0.034313773365009494	0.33519215122997054	-1.596745880099575	0.03351063068011	0.39203288590930196	-1.7623251334439793	0.06393429585148487	0.3090818370974786	-1.6612173841703355	0.7956915873724655	0.18720510612603053	-1.6633758327175425	0.44653282838031333	0.18058419157001998	-1.6936679410406048	0.10948230332995942	0.1775419271101502	-1.5393186787714546	0.01701102664325562	0.14733454612697144	-1.5535190988907788	0.027661188036713195	0.10030043424811659	-1.7696782318060367	0.023397990097213103	0.18199615089061758	-1.6666908426939147	1.4496790092588645	0.21703510995689942	-1.594351307137528	1.7230376964517728	0.2641671702164821	-1.5300417440901444	1.5911950021692696	0.26159525785782106	-1.726701318990185	1.353889450445156	0.364088596026365	-1.7079254122856824	1.0546126310189996	0.3957152142385749	-1.611717023131237	0.8582556834045633	0.46336743040080086	-1.6931381114505892	1.3361411400213619	0.1215812813278549	-1.6884144360717663	1.042671582956024	0.10883444958687066	-1.596369833525188	0.8615346198126002	0.05923264833704516
478	15.933333333333334	-1.6750740042906747	0.8179035955385121	0.25500550859860033	-1.6783470257604045	0.799832778624914	0.33919125674471357	-1.699741498546405	0.4728408528322768	0.30236481905843254	-1.7247629599276593	0.12425599010254255	0.3096183739467283	-1.567766819018067	0.03399515806736562	0.33497424066499215	-1.5968928615459008	0.033550329747337876	0.392183603835881	-1.7623894065255383	0.06410668516993187	0.30905986408901315	-1.6609794830536473	0.7954079113628814	0.18713831275510767	-1.6668235384296648	0.4484555974467663	0.18544670285789913	-1.6933921300106256	0.1098750071955693	0.17754257326389625	-1.541203641657352	0.0161527128445808	0.14577004834849136	-1.5531930543900563	0.027359600972423882	0.10023479808957551	-1.7647077552205903	0.02591061221427965	0.1816167163023912	-1.666344931168518	1.4496328151042803	0.21681963098595286	-1.59472660623052	1.7222082655674185	0.2641930237307712	-1.5297199093813207	1.5910806968725895	0.26245648204556504	-1.7266046376575432	1.3533889530951917	0.36431214599344414	-1.7078080973202505	1.0543794731472893	0.39554745210305264	-1.6114955660856567	0.8582140558627227	0.46317034188669104	-1.6923588456277505	1.3380655450914858	0.11048156049443265	-1.6881657123102285	1.0427810283926027	0.10874711573619417	-1.5962405334141503	0.8619200809153611	0.05872279708545747
479	15.966666666666669	-1.6743973610267113	0.8181640049255875	0.2550059779539095	-1.678413195673237	0.7988432504565014	0.33876883600045454	-1.6999677219854574	0.472239424525646	0.30170813576204186	-1.7247988805389676	0.12433919304675049	0.3096776801466943	-1.5678499720568186	0.03339198027843079	0.3344518462771571	-1.5969614980407694	0.03350521572453138	0.39232374758765864	-1.762399763606561	0.06414687121595827	0.309253392735062	-1.660784369073587	0.7946394064096608	0.18707747192786303	-1.6718299784361066	0.4506822474361719	0.1922817157367677	-1.6933791985570152	0.109846049653096	0.1776024752103598	-1.544235274229993	0.014673399855504862	0.14351082328339734	-1.5532249668192257	0.026860370520173534	0.10027680601593521	-1.7601380321048987	0.028049268492604258	0.1812551895135929	-1.665838492998646	1.4498069029548042	0.2167405026152453	-1.59601268791969	1.7209986742975008	0.2647717167095354	-1.5294005394939958	1.5915266247628208	0.26465680074502795	-1.7265116331352304	1.3529162027068242	0.3643373050545782	-1.7076039802236744	1.0541462717733754	0.39517659901858654	-1.6111401740249178	0.8582472331485463	0.4628801695314778	-1.6915406133980686	1.3403689185695427	0.09717747667901167	-1.6879477406771948	1.0427576935384368	0.10881532441135236	-1.5961797794080712	0.8623271005554114	0.05828544476412426
480	16.0	-1.6736400496057624	0.8183784407807514	0.25501608909812795	-1.6783369821791942	0.7974436119263718	0.3383792512595499	-1.7001537005659844	0.4712815638515453	0.30112894683805635	-1.7247689895423763	0.1242343021248897	0.3098214443456142	-1.5679526187571156	0.03252544391680509	0.3337539361714419	-1.5970424552954454	0.033374581191405676	0.392428485727376	-1.7623011423418005	0.06413869340905011	0.3095554961230094	-1.6606437513912051	0.7934530002094814	0.18710079498970789	-1.6773286937293002	0.4526093279844003	0.19966880271844514	-1.693773798398505	0.10933972764792382	0.17766921870221308	-1.5471735887339575	0.012907790912700392	0.14192358214108639	-1.5535931405844392	0.02618764979234028	0.10048777877387682	-1.7572316385372813	0.029254906666703703	0.18101055448571304	-1.6652142034510835	1.450211438619164	0.21676408004182	-1.5980682943377489	1.71958146684717	0.26573303587422503	-1.529082612340029	1.5924817987842588	0.2676528017463673	-1.726384673335337	1.3525619797252244	0.3641688594827598	-1.7073328338666611	1.0540155081800704	0.3947136659548601	-1.6107270333439212	0.8584247586793254	0.462579443107636	-1.690804523313064	1.3426222115976425	0.08404602752463894	-1.6878599238538932	1.04255604705536	0.10908370148031073	-1.5961673866805026	0.8626128694526326	0.05798052187083746
